<?xml version="1.0" encoding="utf-8"?>
<!-- Generator: Adobe Illustrator 22.1.0, SVG Export Plug-In . SVG Version: 6.00 Build 0)  -->
<svg version="1.1" id="Layer_1" xmlns="http://www.w3.org/2000/svg" xmlns:xlink="http://www.w3.org/1999/xlink" x="0px" y="0px"
	 width="18px" height="18px" viewBox="0 0 18 18" style="enable-background:new 0 0 18 18;" xml:space="preserve">
<style type="text/css">
	.st0{fill:#41479B;}
	.st1{fill:#F5F5F5;}
	.st2{fill:#FF4B55;}
</style>
<path class="st0" d="M17.7,14.9H0.3c-0.2,0-0.3-0.1-0.3-0.3V3.4c0-0.2,0.1-0.3,0.3-0.3h17.4c0.2,0,0.3,0.1,0.3,0.3v11.2
	C18,14.8,17.9,14.9,17.7,14.9z"/>
<path class="st1" d="M18,3.4c0-0.2-0.1-0.3-0.3-0.3h-1.4l-5.7,3.8V3.1H7.4v3.8L1.7,3.1H0.3C0.1,3.1,0,3.2,0,3.4v0.8l4.9,3.2H0v3.1
	h4.9L0,13.8v0.8c0,0.2,0.1,0.3,0.3,0.3h1.4l5.7-3.8v3.8h3.1v-3.8l5.7,3.8h1.4c0.2,0,0.3-0.1,0.3-0.3v-0.8l-4.9-3.2H18V7.4h-4.9
	L18,4.2V3.4z"/>
<g>
	<polygon class="st2" points="18,8.1 9.9,8.1 9.9,3.1 8.1,3.1 8.1,8.1 0,8.1 0,9.9 8.1,9.9 8.1,14.9 9.9,14.9 9.9,9.9 18,9.9 	"/>
	<path class="st2" d="M6.3,10.6L0,14.6c0,0.1,0.1,0.3,0.3,0.3h0.4l6.7-4.3L6.3,10.6L6.3,10.6z"/>
	<path class="st2" d="M12.2,10.6H11l6.7,4.3c0.2,0,0.3-0.1,0.3-0.3v-0.3L12.2,10.6z"/>
	<path class="st2" d="M0,3.8l5.7,3.7h1.1L0.2,3.1C0.1,3.2,0,3.3,0,3.4V3.8z"/>
	<path class="st2" d="M11.7,7.4L18,3.4c0-0.1-0.1-0.3-0.3-0.3h-0.4l-6.7,4.3H11.7z"/>
</g>
</svg>
