<?xml version="1.0" encoding="utf-8"?>
<!-- Generator: Adobe Illustrator 22.1.0, SVG Export Plug-In . SVG Version: 6.00 Build 0)  -->
<svg version="1.1" id="Layer_1" xmlns="http://www.w3.org/2000/svg" xmlns:xlink="http://www.w3.org/1999/xlink" x="0px" y="0px"
	 width="18px" height="18px" viewBox="0 0 18 18" style="enable-background:new 0 0 18 18;" xml:space="preserve">
<style type="text/css">
	.st0{fill:#C8414B;}
	.st1{fill:#FFD250;}
	.st2{fill:#F5F5F5;}
	.st3{fill:#FAB446;}
	.st4{fill:#FFB441;}
	.st5{fill:#5064AA;}
	.st6{fill:#FFA0D2;}
</style>
<path class="st0" d="M0.3,14.9h17.4c0.2,0,0.3-0.1,0.3-0.3V3.4c0-0.2-0.1-0.3-0.3-0.3H0.3C0.1,3.1,0,3.2,0,3.4v11.2
	C0,14.8,0.1,14.9,0.3,14.9z"/>
<rect y="5.6" class="st1" width="18" height="6.8"/>
<path class="st0" d="M7.6,9l0.3-1.2c0-0.1-0.1-0.2-0.2-0.2H7.5c-0.1,0-0.2,0.1-0.2,0.2L7.6,9z"/>
<rect x="7.3" y="8.4" class="st2" width="0.6" height="2.6"/>
<rect x="7.1" y="8.1" class="st3" width="0.9" height="0.3"/>
<g>
	<rect x="6.5" y="9" class="st0" width="1.6" height="0.3"/>
	<polygon class="st0" points="8.1,10.2 7.1,9.9 7.1,9.6 8.1,9.9 	"/>
	<path class="st0" d="M2.9,9l0.3-1.2c0-0.1-0.1-0.2-0.2-0.2H2.9c-0.1,0-0.2,0.1-0.2,0.2L2.9,9z"/>
</g>
<path class="st2" d="M4,8.1c-0.2,0-0.3,0.1-0.3,0.3v2c0,0.4,0.4,1.1,1.6,1.1s1.6-0.7,1.6-1.1v-2c0-0.2-0.1-0.3-0.3-0.3H4z"/>
<g>
	<path class="st0" d="M5.3,9.6H3.7V8.4c0-0.2,0.1-0.3,0.3-0.3h1.2V9.6z"/>
	<path class="st0" d="M5.3,9.6h1.6v0.8c0,0.4-0.3,0.8-0.8,0.8l0,0c-0.4,0-0.8-0.3-0.8-0.8V9.6z"/>
</g>
<path class="st3" d="M3.7,9.6h1.6v0.8c0,0.4-0.3,0.8-0.8,0.8l0,0c-0.4,0-0.8-0.3-0.8-0.8V9.6z"/>
<g>
	<path class="st0" d="M5,11V9.6H4.7v1.5C4.8,11.1,4.9,11.1,5,11z"/>
	<path class="st0" d="M4.3,11.2V9.6H4V11C4.1,11.1,4.2,11.1,4.3,11.2z"/>
</g>
<rect x="4" y="9" class="st4" width="0.9" height="0.3"/>
<g>
	<rect x="4" y="8.4" class="st3" width="0.9" height="0.3"/>
	<rect x="4.2" y="8.6" class="st3" width="0.6" height="0.6"/>
</g>
<rect x="2.6" y="8.4" class="st2" width="0.6" height="2.6"/>
<g>
	<rect x="2.5" y="10.9" class="st3" width="0.9" height="0.3"/>
	<rect x="2.5" y="8.1" class="st3" width="0.9" height="0.3"/>
</g>
<rect x="2.3" y="11.2" class="st5" width="1.2" height="0.3"/>
<rect x="7.3" y="10.9" class="st3" width="0.9" height="0.3"/>
<rect x="7" y="11.2" class="st5" width="1.2" height="0.3"/>
<rect x="4.3" y="7.8" class="st3" width="1.9" height="0.3"/>
<rect x="5.1" y="6.8" class="st4" width="0.3" height="0.9"/>
<g>
	<path class="st2" d="M5,7.3c-0.3,0-0.5-0.2-0.5-0.5c0-0.3,0.2-0.5,0.5-0.5c0.3,0,0.5,0.2,0.5,0.5C5.4,7.1,5.2,7.3,5,7.3z M5,6.7
		c-0.1,0-0.2,0.1-0.2,0.2C4.8,6.9,4.9,7,5,7c0.1,0,0.2-0.1,0.2-0.2C5.1,6.7,5.1,6.7,5,6.7z"/>
	<path class="st2" d="M5.6,7.3c-0.3,0-0.5-0.2-0.5-0.5c0-0.3,0.2-0.5,0.5-0.5c0.3,0,0.5,0.2,0.5,0.5S5.8,7.3,5.6,7.3z M5.6,6.7
		c-0.1,0-0.2,0.1-0.2,0.2C5.4,6.9,5.5,7,5.6,7c0.1,0,0.2-0.1,0.2-0.2C5.7,6.7,5.7,6.7,5.6,6.7z"/>
	<path class="st2" d="M6.2,7.6C6,7.6,5.7,7.4,5.7,7.1c0-0.3,0.2-0.5,0.5-0.5c0.3,0,0.5,0.2,0.5,0.5C6.7,7.4,6.5,7.6,6.2,7.6z M6.2,7
		C6.1,7,6.1,7.1,6.1,7.1c0,0.1,0.1,0.2,0.2,0.2c0.1,0,0.2-0.1,0.2-0.2C6.4,7.1,6.3,7,6.2,7z"/>
	<path class="st2" d="M4.3,7.6c-0.3,0-0.5-0.2-0.5-0.5c0-0.3,0.2-0.5,0.5-0.5c0.3,0,0.5,0.2,0.5,0.5C4.8,7.4,4.6,7.6,4.3,7.6z
		 M4.3,7C4.3,7,4.2,7.1,4.2,7.1c0,0.1,0.1,0.2,0.2,0.2c0.1,0,0.2-0.1,0.2-0.2C4.5,7.1,4.4,7,4.3,7z"/>
</g>
<path class="st3" d="M6.2,10.2v0.2c0,0.1-0.1,0.2-0.2,0.2s-0.2-0.1-0.2-0.2v-0.2H6.2 M6.5,9.9H5.6v0.5c0,0.3,0.2,0.5,0.5,0.5
	c0.3,0,0.5-0.2,0.5-0.5L6.5,9.9L6.5,9.9z"/>
<path class="st6" d="M6.1,9.3L6.1,9.3C5.9,9.3,5.7,9.2,5.7,9V8.7c0-0.2,0.1-0.3,0.3-0.3l0,0c0.2,0,0.3,0.1,0.3,0.3V9
	C6.4,9.2,6.2,9.3,6.1,9.3z"/>
<circle class="st5" cx="5.3" cy="9.6" r="0.5"/>
<rect x="5.1" y="6.2" class="st3" width="0.3" height="0.9"/>
<path class="st0" d="M4.3,7.8L4,7.4l0.2-0.2C4.5,7,4.9,6.8,5.3,6.8l0,0c0.4,0,0.8,0.2,1.1,0.4l0.2,0.2L6.2,7.8H4.3z"/>
<g>
	<circle class="st1" cx="5.3" cy="7.4" r="0.2"/>
	<circle class="st1" cx="4.7" cy="7.4" r="0.2"/>
	<circle class="st1" cx="5.9" cy="7.4" r="0.2"/>
</g>
<g>
	<rect x="2.5" y="9" class="st0" width="1.6" height="0.3"/>
	<polygon class="st0" points="2.5,10.2 3.4,9.9 3.4,9.6 2.5,9.9 	"/>
</g>
</svg>
