<?xml version="1.0" encoding="utf-8"?>
<!-- Generator: Adobe Illustrator 22.1.0, SVG Export Plug-In . SVG Version: 6.00 Build 0)  -->
<svg version="1.1" id="Layer_1" xmlns="http://www.w3.org/2000/svg" xmlns:xlink="http://www.w3.org/1999/xlink" x="0px" y="0px"
	 width="18px" height="18px" viewBox="0 0 18 18" style="enable-background:new 0 0 18 18;" xml:space="preserve">
<style type="text/css">
	.st0{fill:#41479B;}
	.st1{fill:#FF4B55;}
	.st2{fill:#F5F5F5;}
</style>
<path class="st0" d="M0.1,14.8L9,9L0.1,3.2C0,3.2,0,3.3,0,3.4v11.2C0,14.7,0,14.8,0.1,14.8z"/>
<path class="st1" d="M0.1,14.8c0.1,0,0.1,0.1,0.2,0.1h17.4c0.2,0,0.3-0.1,0.3-0.3V9H9L0.1,14.8z"/>
<path class="st2" d="M0.1,3.2c0.1,0,0.1-0.1,0.2-0.1h17.4c0.2,0,0.3,0.1,0.3,0.3V9H9L0.1,3.2z"/>
</svg>
